<?xml version="1.0" encoding="UTF-8" standalone="no"?>
<!DOCTYPE svg PUBLIC "-//W3C//DTD SVG 1.1//EN" "http://www.w3.org/Graphics/SVG/1.1/DTD/svg11.dtd">
<svg width="100%" height="100%" viewBox="0 0 785 734" version="1.1" xmlns="http://www.w3.org/2000/svg" xmlns:xlink="http://www.w3.org/1999/xlink" xml:space="preserve" xmlns:serif="http://www.serif.com/" style="fill-rule:evenodd;clip-rule:evenodd;stroke-linejoin:round;stroke-miterlimit:2;">
    <g transform="matrix(1,0,0,1,-207.801,-83.1967)">
        <path d="M832.546,604.415C832.546,604.415 929.586,609.432 906.984,639.98C884.381,670.528 824.989,622.06 824.989,622.06L832.546,604.415Z" style="fill:rgb(255,184,184);fill-rule:nonzero;"/>
    </g>
    <g transform="matrix(1,0,0,1,-207.801,-83.1967)">
        <path d="M653.717,313.448L673.469,318.386C673.469,318.386 684.991,352.952 693.221,384.226C701.451,415.501 717.911,509.323 717.911,509.323L845.521,598.756L830.301,632.803L660.301,565.803L622.443,417.147L653.717,313.448Z" style="fill:rgb(87,90,137);fill-rule:nonzero;"/>
    </g>
    <path d="M464.5,291.607L457.138,445.772L472.5,491.607L427.5,458.607L464.5,291.607Z" style="fill-opacity:0.2;fill-rule:nonzero;"/>
    <g transform="matrix(1,0,0,1,-207.801,-83.1967)">
        <path d="M698.982,648.411C698.982,648.411 720.38,706.021 723.672,745.525C726.964,785.029 730.256,816.303 730.256,816.303L629.85,816.303L610.098,786.675L610.098,816.303L493.231,816.303C493.231,816.303 460.311,709.313 473.479,696.145C486.647,682.977 611.744,627.012 611.744,627.012L698.982,648.411Z" style="fill:rgb(47,46,65);fill-rule:nonzero;"/>
    </g>
    <circle cx="365.261" cy="105.155" r="62.548" style="fill:rgb(255,184,184);"/>
    <g transform="matrix(1,0,0,1,-207.801,-83.1967)">
        <path d="M525.328,214.688L520.39,287.112L582.938,371.058L614.213,292.05C614.213,292.05 586.23,273.944 602.691,236.086L525.328,214.688Z" style="fill:rgb(255,184,184);fill-rule:nonzero;"/>
    </g>
    <g transform="matrix(1,0,0,1,-207.801,-83.1967)">
        <path d="M708.031,662.4C708.031,677.22 666.881,700.26 666.881,700.26L666.881,708.49L650.421,716.72L614.211,644.3L604.341,723.3C604.341,723.3 531.911,734.83 508.871,723.3C485.821,711.78 474.301,716.72 441.381,705.2C408.461,693.68 454.551,538.95 454.551,538.95L421.631,300.28L493.551,264.32L497.341,262.42L507.231,260.6L522.391,257.8L573.061,292.05L577.141,313.45L579.651,326.62L592.811,311.8L602.751,279.11L673.471,318.39L653.721,476.4C653.721,476.4 708.031,647.59 708.031,662.4Z" style="fill:rgb(87,90,137);fill-rule:nonzero;"/>
    </g>
    <g transform="matrix(1,0,0,1,-207.801,-83.1967)">
        <path d="M466.072,713.428C466.072,713.428 541.788,774.33 505.576,785.852C469.364,797.374 449.612,723.304 449.612,723.304L466.072,713.428Z" style="fill:rgb(255,184,184);fill-rule:nonzero;"/>
    </g>
    <g transform="matrix(1,0,0,1,-207.801,-83.1967)">
        <path d="M438.09,303.572L421.63,300.28C421.63,300.28 396.94,313.448 395.294,339.784C393.648,366.12 372.25,550.473 372.25,550.473L441.382,736.472L497.346,715.074L443.028,540.597L484.178,389.164L438.09,303.572Z" style="fill:rgb(87,90,137);fill-rule:nonzero;"/>
    </g>
    <circle cx="372.5" cy="264.607" r="6" style="fill:rgb(47,46,65);"/>
    <circle cx="372.5" cy="303.607" r="6" style="fill:rgb(47,46,65);"/>
    <circle cx="406.5" cy="560.607" r="6" style="fill:rgb(47,46,65);"/>
    <g transform="matrix(1,0,0,1,-207.801,-83.1967)">
        <path d="M520.254,124.274L508.691,119.645C508.691,119.645 532.867,93.028 566.503,95.343L557.043,84.928C557.043,84.928 580.168,75.67 601.19,99.972C612.241,112.747 625.028,127.763 632.999,144.679L645.381,144.679L640.213,156.058L658.301,167.437L639.736,165.393C640.842,171.625 641.012,177.987 640.239,184.268C639.443,190.549 636.235,196.281 631.297,200.244C626.358,204.207 616.957,170.563 616.957,165.934L616.957,177.506C616.957,177.506 605.395,167.091 605.395,160.148L599.088,168.248L557.043,168.248L563.35,157.833L539.174,161.305L548.634,148.575L511.203,201.14C511.203,201.14 489.771,141.632 520.254,124.274Z" style="fill:rgb(47,46,65);fill-rule:nonzero;"/>
    </g>
    <path d="M250.005,504.87L290,629.803L258,499.803L250.005,504.87Z" style="fill-opacity:0.2;fill-rule:nonzero;"/>
</svg>
